<svg xmlns="http://www.w3.org/2000/svg" width="363.016" height="524.847" viewBox="0 0 363.016 524.847">
  <g id="logo" transform="translate(-0.02 -0.032)">
    <path id="Trazado_1" data-name="Trazado 1" d="M425.577,735.591q-7.243-.167-14.459-.927a47.508,47.508,0,0,0-15.719,1.454c-12.9,2.988-24.956.587-36.834-4.488-16.453-6.989-33.026-13.745-49.519-20.715a145.608,145.608,0,0,0-35.52-10.071,121.594,121.594,0,0,1-24.216-5.7c-14.365-5.315-27.631-12.772-40.3-21.408-11.338-7.75-20.808-17.573-30.678-26.984-3.655-3.488-7.41-6.883-10.177-11.211-3.455-5.409-4.388-10.864-1.334-16.82,5.382-10.411,11.338-20.294,21.342-27.084,5.242-3.568,10.911-6.189,17.24-6.909a17.547,17.547,0,0,1,15.413,5.549c7.536,8.176,14.819,16.593,22.148,24.956a113.29,113.29,0,0,0,16.98,15.8c5.269,4,11.744,5.249,18.007,6.923,10.411,2.781,21.008,2.321,31.532,1.581a74.528,74.528,0,0,1,27.757,3.668c6.389,2,12.718,4.215,19.341,5.409a79.889,79.889,0,0,0,22.449.607c3.221-.327,6.4-.5,9.477.747a9.6,9.6,0,0,0,4.768.34,162.524,162.524,0,0,1,27.557.307,49.751,49.751,0,0,1,14.866,3.461c3.268,1.334,5.8,3.481,6.329,7.2a11.314,11.314,0,0,1-4.208,10.8c-4.588,3.881-10.157,4.762-15.873,4.955-7.763.253-15.446-.754-23.1-1.907-8.35-1.254-16.56-.667-24.9.62-11.131,1.7-20.781,6.749-30.565,11.718-4.135,2.094-8.21,4.508-13.185,3.881a13.461,13.461,0,0,1-4.242-.827c-.714-.34-1.434-.434-1.741.353-.38.987.393,1.334,1.214,1.5,4.562,1.04,9.07,1.334,13.452-.787,6.909-3.381,13.819-6.776,20.761-10.111,2.894-1.387,6.049-2,9.117-2.928,1.334-.387,1.861.113,2.261,1.334a27.822,27.822,0,0,0,4.929,9.7c4.2,5.015,9.857,7.049,16.006,8.056,5.5.9,10.971,2,16.533,2.521,6.629.627,13.238,1.414,19.841,2.228a40.476,40.476,0,0,0,8.9.107c2.488-.247,5.022.62,7.67.467A40.878,40.878,0,0,0,459.6,699.01c14.005-6.362,28.011-12.818,41.429-20.361,4.555-2.561,9.337-4.922,14.672-5.582a22.916,22.916,0,0,1,6.189-.067c2.5.373,4.828,1.487,5.642,4.1a8.01,8.01,0,0,1-1.787,7.7,38.969,38.969,0,0,1-11.158,9.077,109.945,109.945,0,0,1-18.547,8.843c-11.258,3.922-21.428,9.891-31.345,16.38-6.9,4.522-14.005,8.67-21.208,12.718C437.9,735.017,431.846,735.764,425.577,735.591Z" transform="translate(-164.95 -212.546)" fill="#030404"/>
    <path id="Trazado_2" data-name="Trazado 2" d="M553.027,656.087a37.855,37.855,0,0,0,7.336-17.5c1.667-9.457,2.134-19.121,5.1-28.351A28.218,28.218,0,0,1,569,602.62c2.1-3.028,5.335-3.148,7.67-.313a9.417,9.417,0,0,1,2.088,6.629,62.466,62.466,0,0,1-.927,9.337,53.125,53.125,0,0,0-.754,14.472c1.167,16.333-3.908,30.938-11.891,44.857a60.363,60.363,0,0,1-16.453,18.54,15.74,15.74,0,0,1-6.776,3.154,38.634,38.634,0,0,1-11.484-.287c-4.535-.714-9.1-1.334-13.672-1.674a184.242,184.242,0,0,1-19.3-2.668,46.142,46.142,0,0,1-8.43-2c-.387-.153-.747-.374-1.654-.834,5.662-.227,10.7.153,15.686-.587,6.222-.92,12.5-1.181,18.761-1.621,2-.14,2.3,1.28,3.015,2.268,1.894,2.668,2.841,3.028,5.676,1.861,1.187-.494,1.334-1.187.393-2s-2-1.581-3.288-2.548c3.961-.887,7.623-1.687,11.278-2.534a8.07,8.07,0,0,0,4.962-3.335,145.1,145.1,0,0,1,11.3-14.265,14.2,14.2,0,0,1,2.868,5.689c.367,1.334.994,1.621,2.121.834.127-.087.287-.127.414-.207,1.134-.76,3.128-.667,3.128-2.574s-1.547-2.721-2.888-3.608c-1.14-.76-2.354-1.4-3.708-2.194,3.581-3.888,7.463-7.469,10.057-12,2.668-4.628,1.741-10.151,3.241-15.219,1.334-.047,2.448,2.848,4.268.854.734-.794.527-5.335-.147-6.042-1.24-1.334-2.187.087-3.528.527a68.941,68.941,0,0,1,1.581-10.331,90.614,90.614,0,0,0,1.761-13.392c0-.754.394-1.841-.82-2.067-1.034-.187-1.18.82-1.474,1.461-1.147,2.481-2.214,5-3.335,7.483-.667,1.441-.774,2.474,1.247,2.714.774.093,1.481.307,1.214,1.641-1.881,9.437-2.981,19-4.362,28.524a8.843,8.843,0,0,1-2.714,4.955c.187-1.861.407-3.241.427-4.622,0-1.207.427-2.841-1.681-2.768-1.827.06-3.715,1.947-3.515,3.461a21.1,21.1,0,0,0,.78,4.729c1,2.614.14,4.362-1.741,6.169a103.683,103.683,0,0,0-12.672,14.726c0-1.294,0-1.934,0-2.574,0-.974-.047-2.034-1.334-1.867-1.114.14-2.321.5-1.861,2.167a16.32,16.32,0,0,1,.487,2.468c.107.994,1.114,1.914.253,3-1.127,1.414-1.941,3.121-3.922,3.661a109.467,109.467,0,0,1-26.05,3.648c-1.567,0-.774-1.007-.727-1.574.273-3.455.22-3.508-3.2-2.434-.213.067-.44.107-.667.18-2.734.874-2.781,1.074-.8,3.141.2.213.38.447.667.78a40.151,40.151,0,0,1-9.4,1.334c-4.668.18-9.337,0-14.005.133a3.021,3.021,0,0,1-2.2-.867c-3.561-2.981-5.189-7.089-6.729-11.258-.36-.987.08-1.287.974-1.487a63.1,63.1,0,0,1,20.535-1.394c8.59.947,17.127,2.568,25.81,2.454,6.463-.08,12.672-.767,18.3-4.735s8.67-13.972,1.814-19.594c-1.747-1.427-.894-4.422,1.334-5.069a3.384,3.384,0,0,0,1.474-5.009c-.787-.92-1.541,0-2.628,0,.707-4,1.334-7.956,2.121-11.858.947-4.555,2.174-9.057,2.721-13.685a3.027,3.027,0,0,1,2.341-2.954,1.814,1.814,0,0,0,1.527-1.954c.113-2.374.12-4.755.173-7.129a1.334,1.334,0,0,0-.827-1.461c-.767-.247-1.127.394-1.421.9-.774,1.334-1.474,2.668-2.321,4.188a27.155,27.155,0,0,1-1.621-5.809c-1.134-4.422-2.588-8.763-3.161-13.339-.08-.667-.087-1.721-1.114-1.741-1.22,0-1,1.074-1.187,1.861a24.012,24.012,0,0,0-.874,6.342c.033,1.127.32,1.9,1.641,1.167,1.1-.607,1.334.193,1.527.94,1.267,5.1,2.908,10.124,3.608,15.339.5,3.695-.814,7.256-1.421,10.864-.107.667-.313,1.274-.48,1.934-4.322-2.621-4.382-2.668-5.555,2.394-.28,1.2-1.474,2.794-.393,3.628,1.254.987,2.368-.814,3.588-1.334a10.936,10.936,0,0,0,1.494-1.054c-1.28,7.2-2.494,14.005-3.141,21.061-2.214-.767-4.262-1.581-6.362-2.174-1.267-.36-.954-1.127-.82-1.927a207.807,207.807,0,0,0,2.528-36.161c-.053-4.749-1.174-9.437-.827-14.219a30.145,30.145,0,0,1,3.748-12.825c1.394-2.481,3.275-4.188,6.249-3.635s5.189,2.274,5.816,5.409c1.087,5.462,2,10.964,3.115,16.406,1.621,7.69,1.921,15.493,2.047,23.3a100.7,100.7,0,0,1-2.254,24.4C553.787,651.919,553.433,654.019,553.027,656.087Z" transform="translate(-268.584 -211.072)" fill="#030404"/>
    <path id="Trazado_3" data-name="Trazado 3" d="M514.53,647.738c2.388-4.668,4.742-9.19,8.09-13.1.614-.714,1.114-1,1.774-.107.32.427.74.787,1.02,1.234,1.407,2.274,2.7,2.388,4.448.327.974-1.154,0-1.814-.747-2.434-1.054-.914-3.335-.767-3.335-2.194,0-.954,1.747-1.954,2.668-2.954a3.741,3.741,0,0,0,.667-2.828c0-4.748-.093-9.5.287-14.252.1-1.334.427-2.054,1.867-1.927.767.073,1.714.16,1.841-.84a4.169,4.169,0,0,0-.734-3.034c-.627-.827-1.38-.113-2.161.16.393-5.135.807-10.211,1.16-15.293.047-.614.38-1.461-.52-1.807s-1.447.3-2,.82c-1.107,1.054-1.067,2.448-1.06,3.848.04,8.43-.06,16.853-.594,25.256-.667.273-.987-.333-1.434-.56a1.067,1.067,0,0,0-1.441.12c-.96,1-.187,4.542,1.094,5A2.787,2.787,0,0,1,526.4,628a68.982,68.982,0,0,0-8.123,9.337c-.667.987-1.334,2-1.961,3.015-.767-.087-.513-.667-.58-1.067-.167-.967-.433-2-1.661-1.6a2.181,2.181,0,0,0-1.547,2.668c.087.347.42.627.634.947,1.494,2.281,1.334,3.941-.574,5.962-.22.24-.407.447-.74.414-4.462-.52-8.963,1.561-13.7-.3,3.488-3.121,6.156-6.8,9.063-10.277,8.67-10.357,12.918-22.442,14.559-35.667.44-3.541.614-7.156,1.761-10.6a16.394,16.394,0,0,1,2-4.095c1.847-2.668,4.042-3.635,6.623-2.894,3.195.92,5.182,3.275,5.215,6.442.053,4.835.293,9.69-.087,14.492-.62,7.876.32,15.813-.867,23.636A82.873,82.873,0,0,1,533.75,640.9a31.719,31.719,0,0,1-2.041,4.589c-1.047,2.1-2.474,3.154-5.015,2.634C522.726,647.364,518.725,648,514.53,647.738Z" transform="translate(-275.925 -212.213)" fill="#030404"/>
    <path id="Trazado_4" data-name="Trazado 4" d="M468.414,765.159c-10.224-.854-19.628-2.548-29.058-4.075a59.363,59.363,0,0,0-6.8-.947,3.7,3.7,0,0,0-3.541,2.381c-2.408,5.2-2.474,5.255-7.43,2.154a73.286,73.286,0,0,0-21.682-9.5c-1.014-.247-3,.667-2.961-1.14.033-1.481,1.881-.894,2.908-1.034a52.948,52.948,0,0,0,17.34-5.562c2-1.034,3.495-.9,5.009.874,1.841,2.154,3.968,4.062,5.816,6.209a10.928,10.928,0,0,0,8.156,4.3c3.868.187,7.7,1.127,12,1.814-4.728-7.336-6.729-15.726-12.938-21.708-.507-.48-1.034-1.054-.534-1.781.38-.547.987-.487,1.654-.4,8.55,1.16,8.67,1.1,11.018,9.2,1.334,4.755,3.441,9.264,4.542,14.085.233,1.014.667,1.26,1.627,1.434,7.249,1.334,14.592,1.674,21.915,2.228,5.649.42,11.284.954,17.06,1.6l-8.1-6.209c-.667-.514-1.334-1.014-2-1.547-.54-.44-.82-1.187-.293-1.6a13.845,13.845,0,0,1,5.422-2.254c1.421-.347,1.9,1.047,2.581,1.907a40.908,40.908,0,0,1,6.189,9.864c.44,1.094,1.334,1.174,2.181,1.334,6.723,1.334,13.432,2.708,20.221,3.695,2.981.433,5.2-.76,7.243-2.668,3.741-3.448,6.669-7.623,9.87-11.511,1.5-1.807,3.121-2.428,5.215-1.661a7.248,7.248,0,0,0,6.469-.707c3.055-1.727,6.2-3.295,9.377-4.8,1.087-.514,1.04-.84.474-1.781-2.161-3.555-2.094-3.521,1.5-4.935,1.907-.747,2.941-.467,2.995,1.767a11.447,11.447,0,0,0,.387,1.9c3.621-1.861,7.229-3.615,10.737-5.569,2-1.087,2.781-3.161,3.488-5.189a2.785,2.785,0,0,1,3.041-2.134c3.521,0,7.036-.587,10.571-.42.634,0,1.5-.313,1.681.667.167.88-.6,1.167-1.187,1.487a11.9,11.9,0,0,1-2.094.907c-11.164,3.461-20.9,9.857-31.185,15.133-3.121,1.6-6.316,3.075-9.337,4.809-2.041,1.154-4.075,1.814-6.269.894-2.488-1.04-4.055-.113-5.335,1.961a17.549,17.549,0,0,1-1.434,1.767c1.654,0,3.148.067,4.635,0,1.854-.107,2.448,1.074,2.608,2.534.18,1.647-.934,2.314-2.381,2.481-2.061.233-3.915-.587-5.709-1.4a1.894,1.894,0,0,0-2.714.667,29.706,29.706,0,0,1-5.429,5.589,8.963,8.963,0,0,1-7.963,1.874,4.908,4.908,0,0,0-4.075.667,79.2,79.2,0,0,1-11.8,6c-2.308.987-2.668.76-3.922-2.121-.807-1.794-.387-2.828,1.487-3.495,2.514-.88,4.989-1.861,7.71-2.668-2.668-.58-5.335-1.214-8-1.747a213.994,213.994,0,0,0-22.942-3.215,5.375,5.375,0,0,0-3.828.974c-4.755,3.335-9.53,6.669-14.132,10.217a22.176,22.176,0,0,1-2.914,1.814,3.6,3.6,0,0,1-5.335-2.774c-.127-.82.32-1.227.927-1.661A59.858,59.858,0,0,1,468.414,765.159Z" transform="translate(-242.214 -261.888)" fill="#fefefe"/>
    <path id="Trazado_5" data-name="Trazado 5" d="M471.093,695.479c-3.388,2.134-6.943,3.335-10.331,4.855a6.39,6.39,0,0,1-5.222.14c-2.994-1.1-6-2.181-9.09-3.048a6.389,6.389,0,0,0-5.809.88c-4.588,3.195-9.924,5.015-14.672,7.916a3.035,3.035,0,0,1-2.594.233c-6.556-1.721-13.152-3.281-19.7-5.015-1.514-.407-1.614,0-1.247,1.24a24.083,24.083,0,0,0,6.836,10.931c.527.487,1.447.88,1.034,1.787a2.141,2.141,0,0,1-1.941,1.007c-6.622.487-12.085-1.694-15.839-7.276s-3.488-11.451-.273-17.273c3.094-5.6,7.936-8.93,13.839-11,1.014-.36,1.821-.4,2.4.493s-.46,1.294-.887,1.827c-2.861,3.575-3.835,7.91-4.828,12.211-.213.927-.767,1.867-.36,3.068a79.946,79.946,0,0,0,14.5-5.749q3.241-1.7,6.423-3.515a1.434,1.434,0,0,1,1.447-.18c5.869,2.381,12.1,3.608,18.094,5.582a3.043,3.043,0,0,0,2.167-.307c3.435-1.147,6.282-3.428,9.5-5.009a6.956,6.956,0,0,1,6.316-.187c3.061,1.334,6.309,2.221,9.457,3.335,1.04.38,1.674.407,2.334-.747a10.04,10.04,0,0,1,6-4.335c.667-.213,1.414-.387,1.834.36s-.213,1.06-.667,1.521c-3.221,3.481-3.335,7.51-.207,10.924.453.5.787.994.474,1.621s-.947.354-1.454.333C474.621,701.969,471.954,699.648,471.093,695.479Z" transform="translate(-239.825 -244.529)" fill="#fefdfd"/>
    <path id="Trazado_6" data-name="Trazado 6" d="M221.36,662.162c-.387-13.859,10.224-24.223,23.816-23.122a15.692,15.692,0,0,1,11.151,6.062,27.06,27.06,0,0,1,3.708,6c3.835,8.583.073,20.975-8.17,26.537-4.035,2.721-8.4,4.722-13.425,4.588-1.16,0-2.894.14-3.188-1.087-.38-1.567,1.527-1.581,2.528-2.081a27.117,27.117,0,0,0,12.958-13.112,13.812,13.812,0,0,0-10-19.447,11.115,11.115,0,0,0-9.337,2.828,17.311,17.311,0,0,0-6.062,9.484c-.587,2.668-2,5.115-1.781,7.963a1.114,1.114,0,0,1-.974,1.334c-.887.08-1.174-.667-1.207-1.367C221.307,665.23,221.36,663.7,221.36,662.162Z" transform="translate(-183.725 -230.653)" fill="#fff"/>
    <path id="Trazado_7" data-name="Trazado 7" d="M316.908,712.388c-.06.667-.734.914-1.547.507a15.411,15.411,0,0,1-2.441-1.681c-4.582-3.588-9.19-7.149-13.692-10.831-.9-.734-1.334-.58-2.047.06-3,2.734-6,5.469-9.07,8.136-.594.514-1.254,1.781-2.241.774-.82-.834.18-1.487.667-2.114,2.554-3.148,5.055-6.342,7.69-9.417.8-.934.667-1.427-.053-2.254-2.874-3.181-5.676-6.429-8.51-9.657-.534-.614-1.461-1.194-.667-2.114s1.394.04,1.967.4c3.481,2.221,6.963,4.428,10.364,6.763,1.06.727,1.641.84,2.668-.127,3.241-3.034,6.636-5.909,10-8.843.627-.554,1.28-1.334,2.127-.487s-.087,1.447-.52,2c-2.808,3.441-5.629,6.869-8.537,10.224-.807.934-.92,1.481,0,2.408,4.362,4.415,7.956,9.53,12.531,13.752A4.669,4.669,0,0,1,316.908,712.388Z" transform="translate(-204.825 -244.698)" fill="#fefefd"/>
    <path id="Trazado_8" data-name="Trazado 8" d="M345.856,721.918c2.268.147,4,1.014,4.475,3.455a1.434,1.434,0,0,0,1.06,1.274,164.561,164.561,0,0,1,15.726,6.783c.474.233,1.194,1.094,1.787.2.46-.667,1.114-1.334.474-2.441a54.686,54.686,0,0,1-2.461-5.389c-.667-1.507-1.074-2.981-3.141-3.455-1.514-.347-1.741-2-1.24-3.461A2.614,2.614,0,0,1,365.77,717c1.574.313,2.834,1.654,2.288,2.894-1.227,2.748.367,4.7,1.294,6.8.994,2.261,1.5,4.842,4.362,6,1.587.667,1.3,2.668.96,4.148a2.808,2.808,0,0,1-2.854,2.214,2.668,2.668,0,0,1-2.948-2.321c-.153-.667-.574-.787-1.074-1.02-5.535-2.541-11.018-5.2-16.766-7.236-.56-.2-1.127-.914-1.774.033s.113,1.26.447,1.787a63.368,63.368,0,0,0,5.482,7.336,6.43,6.43,0,0,0,2.781,2.207c1.534.527,2.041,1.734,1.187,3.335s-2.668,2.374-3.761,1.18c-2.207-2.341-5.269-2.454-7.923-3.595a45.317,45.317,0,0,0-4.382-1.26c-.667-.22-1.147-.4-1.7.38-.754,1.054-1.927.827-2.9.293-1.08-.594-2.141-1.334-2.087-2.781a2.474,2.474,0,0,1,1.527-2.388,2.854,2.854,0,0,1,3.481,1.074,4.395,4.395,0,0,0,2.941,1.894c2.841.874,5.676,1.747,8.5,2.668.667.207,1.454.734,1.921.2.634-.727-.387-1.174-.76-1.634a88.367,88.367,0,0,1-5.869-7.95,4.035,4.035,0,0,0-2.621-2,4.182,4.182,0,0,1-3.028-3.168,3.215,3.215,0,0,1,3.368-4.182Z" transform="translate(-222.048 -256.615)" fill="#fdfdfd"/>
    <path id="Trazado_9" data-name="Trazado 9" d="M250.235,662.078c.894-.48,1.714-.987,2.194-.14.554.974-.527,1.254-1.087,1.674-1.034.78-3.821,1.514.033,2.228a.774.774,0,0,1,.54.9.92.92,0,0,1-1.147.82c-1.174-.207-1.24.507-1.534,1.4-.38,1.16.413,1.127.967,1.334a.82.82,0,0,1,.58,1.227c-.247.627-.707.547-1.334.447-1.574-.247-3.395,2.3-2.761,3.8.233.567.667,1.054,0,1.607s-1.194.087-1.434-.46c-.52-1.18-1.074-.54-1.767-.227-.807.36-1.047.72-.567,1.521.36.594.667,1.334-.26,1.707-.807.354-1.167-.354-1.334-.887-.313-.994-.934-1.187-1.714-.754s-2.354.127-2.127,1.841c.087.667.207,1.527-.754,1.647-.8.1-.987-.614-1.02-1.247-.04-.82-.373-.807-.994-.514-1.154.547-2,.414-1.841-1.134.087-.787-.06-1.134-.927-1.087-.594,0-1.08-.267-.94-.974a1.087,1.087,0,0,1,1.227-.82,1.754,1.754,0,0,0,2-1.394c.187-.574.487-.987-.467-.947a.82.82,0,0,1-.907-.847c0-.62.614-.814,1.134-.98.86-.287,2,.22,2.468-1.16.233-.727,1.22-1.334-.133-1.961a.834.834,0,0,1-.2-1.227c.287-.46.734-.36,1.22-.26,1.861.387,4.1-1.767,3.835-3.668-.16-1.16.36-1.794,1.334-1.06s1.254.213,1.914-.167a1.507,1.507,0,0,0,.667-2.128c-.327-.754-.373-1.421.42-1.727s1.027.4,1.194,1.014c.273.994.787.514,1.374.3.78-.273,1.334-1.494,2.394-.667C251.669,660.057,250.422,660.884,250.235,662.078Z" transform="translate(-186.938 -237.124)" fill="#fdfcfc"/>
    <path id="Trazado_10" data-name="Trazado 10" d="M346.026,679.107l.954.667c2.254,1.574,4.528,3.121,6.756,4.735.974.714,1.807,1.08,3.008.34,1.414-.88,2.988-1.507,4.475-2.268.58-.293,1.22-.573,1.681,0,.594.727-.04,1.234-.554,1.721-.774.734-1.534,1.494-2.294,2.254-2.6,2.614-2.608,2.621-.667,5.916.8,1.38,1.641,2.741,2.474,4.1.347.56.62,1.154,0,1.641s-1.087-.04-1.507-.507c-1.494-1.641-3.034-3.241-4.468-4.935a1.406,1.406,0,0,0-2.127-.32c-2.348,1.407-4.869,2.521-7.1,4.148-.667.5-1.614,1-2.241.127s.36-1.334.867-1.867c1.621-1.634,3.188-3.335,4.942-4.808,1.227-1.034.994-1.754.12-2.8-1.767-2.107-3.448-4.295-5.142-6.462-.267-.333-.667-.667-.307-1.194A1.04,1.04,0,0,1,346.026,679.107Z" transform="translate(-224.653 -244.016)" fill="#fdfdfd"/>
    <path id="Trazado_11" data-name="Trazado 11" d="M549.892,707.432c-4.989-.507-10.077-.667-14.606-3.215a6.876,6.876,0,0,1-2.541-9.137c2.448-4.729,4.842-6.149,10.144-5.622,4.495.454,8.95,1.214,13.432,1.734,1.2.133,1.441.667,1.614,1.734a33.785,33.785,0,0,1-.587,12.085,2.181,2.181,0,0,1-1.954,1.921A31.663,31.663,0,0,1,549.892,707.432Z" transform="translate(-287.178 -247.438)" fill="#fcfbfb"/>
    <path id="Trazado_12" data-name="Trazado 12" d="M212.385,688.562a2.061,2.061,0,0,1,1.2-1.514,1.4,1.4,0,0,1,1.681.213,1.054,1.054,0,0,1,.04,1.627c-1.687,1.294-.367,1.767.567,2.308,1.247.727,2.588,1.334,3.788,2.1s1.827-.2,2.708-.434c.667-.173,1.447-.413,1.961.147a1.1,1.1,0,0,1-.273,1.754c-.467.32-.587.6-.04,1.027,2.668,2.141,4.275,5.635,8.09,6.356a.907.907,0,0,1,.72,1.034c-.067.6-.507.667-.967.76a5.218,5.218,0,0,1-6.316-3.421c-1.334-3.255-4.468-4.408-7.276-5.9-2.761,1.954-2.628-.807-3.9-2-2.127-1.947-4.175-4-6.3-5.942a12.1,12.1,0,0,1-3.008-4.515c-.26-.667-.373-1.16.233-1.607s1.027-.033,1.454.267a8.289,8.289,0,0,1,2.834,3.808,11.485,11.485,0,0,0,2.808,3.935Z" transform="translate(-178.232 -244.44)" fill="#fcfcfc"/>
    <path id="Trazado_13" data-name="Trazado 13" d="M262.324,720.454a5.616,5.616,0,0,1-5.615-5.215c-.107-3.028,2.861-5.909,6.076-5.889,2.541,0,4.788,2.554,4.782,5.4C267.573,718.067,265.365,720.454,262.324,720.454Z" transform="translate(-195.505 -254.098)" fill="#fdfcfc"/>
    <path id="Trazado_14" data-name="Trazado 14" d="M300.847,739.767a8.051,8.051,0,0,1,.44-1.394,3.275,3.275,0,0,0-.707-4.268c-.507-.48-1.247-1.2-.567-2s1.447-.207,2.041.247c1.567,1.194,3.028,1.494,4.6-.053.48-.474,1.207-1.014,2.041-.373s.273,1.521-.093,2c-1.461,1.954-.667,3.428.707,4.969.574.634,1.861,1.394.834,2.434s-1.774-.247-2.621-.614a1.068,1.068,0,0,1-.373-.267c-1.527-1.667-2.934-1.427-4.3.22-.393.46-.867.92-1.581.614S300.854,740.42,300.847,739.767Z" transform="translate(-209.839 -261.519)" fill="#fdfcfc"/>
    <path id="Trazado_15" data-name="Trazado 15" d="M179.823,655.593a15.959,15.959,0,0,1-5.836-.967c-1.06-.42-1.494-1.147-.834-2.134.967-1.447,2.041-2.828,3.115-4.208,1.234-1.594,2.228-1.2,3.068.42.667,1.28,1.427,2.508,2.067,3.8.413.834,1.334,1.607.714,2.668S180.39,655.2,179.823,655.593Z" transform="translate(-167.571 -233.42)" fill="#fdfcfc"/>
    <path id="Trazado_16" data-name="Trazado 16" d="M203.391,625.482c-1.467-.273-3.441-.514-5.335-1.04-1.454-.4-1.654-1.467-.627-2.6.614-.667,1.374-1.214,2-1.887,2.668-2.988,2.861-2.981,4.915.36.434.714.847,1.434,1.247,2.167s1.12,1.38.567,2.274S204.718,625.509,203.391,625.482Z" transform="translate(-175.547 -223.591)" fill="#fdfcfc"/>
    <path id="Trazado_17" data-name="Trazado 17" d="M217.336,612.173a19.724,19.724,0,0,1-6.4-2.308c-1.334-.747-1.154-1.854-.053-2.768s2.434-1.854,3.588-2.848a.961.961,0,0,1,1.674.327,58.06,58.06,0,0,1,2.948,5.909C219.677,612.013,218.61,612.326,217.336,612.173Z" transform="translate(-179.949 -218.971)" fill="#fdfcfc"/>
    <path id="Trazado_18" data-name="Trazado 18" d="M232.95,598.609c-.313.874-.447,1.794-1.847,1.174a27.871,27.871,0,0,1-5.549-3.141c-1.527-1.147-1.367-2.167.307-3.095.8-.433,1.607-.854,2.368-1.334,2.214-1.434,2.574-1.334,3.275,1.107C232,595.054,232.463,596.821,232.95,598.609Z" transform="translate(-184.778 -214.771)" fill="#fcfcfc"/>
    <path id="Trazado_19" data-name="Trazado 19" d="M191.023,640.949a15.26,15.26,0,0,1-5.175-1.047c-1.2-.534-1.614-1.214-.48-2.174s1.774-2.468,2.708-3.661,1.714-1.1,2.481.107,1.594,2.428,2.281,3.695c.44.827,1.334,1.667.667,2.708S191.83,640.836,191.023,640.949Z" transform="translate(-171.522 -228.74)" fill="#fcfcfc"/>
    <path id="Trazado_20" data-name="Trazado 20" d="M299.371,669.16a3.459,3.459,0,1,1-3.295-3.4A3.388,3.388,0,0,1,299.371,669.16Z" transform="translate(-207.416 -239.577)" fill="#fcfcfc"/>
    <path id="Trazado_21" data-name="Trazado 21" d="M193.737,655.833a8.863,8.863,0,0,1-.767.994,65.277,65.277,0,0,0-8.223,9.757c-.373.547-.794,1.034-1.474.58s-.447-1.054-.073-1.587a68.257,68.257,0,0,1,8.67-10.257C192.623,654.606,193.237,654.813,193.737,655.833Z" transform="translate(-170.902 -235.961)" fill="#f9f9f9"/>
    <path id="Trazado_22" data-name="Trazado 22" d="M202.837,644.331c-.834-.273-1.28-.76-.58-1.487,3.235-3.335,6.489-6.669,10-9.724.447-.393.96-.567,1.414-.1a.84.84,0,0,1-.033,1.227q-5.082,4.962-10.2,9.877C203.3,644.251,203.044,644.251,202.837,644.331Z" transform="translate(-177.254 -228.581)" fill="#fbfafa"/>
    <path id="Trazado_23" data-name="Trazado 23" d="M234.89,612.432a1.14,1.14,0,0,1-.667,1.247c-3.335,2.334-5.9,5.489-8.737,8.357-.467.474-.867,1.521-1.807.72s0-1.334.447-1.854a54.621,54.621,0,0,1,8.843-8.577C233.689,611.826,234.43,611.3,234.89,612.432Z" transform="translate(-184.37 -221.592)" fill="#faf9f9"/>
    <path id="Trazado_24" data-name="Trazado 24" d="M290.585,652.764c-.04,1.721-1.18,2.388-2.668,2.488-1.741.113-2.374-1.067-2.461-2.6-.107-1.774,1.02-2.508,2.541-2.5A2.481,2.481,0,0,1,290.585,652.764Z" transform="translate(-205.079 -234.38)" fill="#fbfbfb"/>
    <path id="Trazado_25" data-name="Trazado 25" d="M208.409,653.532c-.914-.273-1.234-.8-.574-1.507,1.334-1.454,2.768-2.848,4.175-4.242.413-.414.86-.22,1.214.113a.734.734,0,0,1,.1,1.034c-1.414,1.5-2.861,2.961-4.315,4.415C208.869,653.485,208.589,653.478,208.409,653.532Z" transform="translate(-179.111 -233.513)" fill="#f4f3f3"/>
    <path id="Trazado_26" data-name="Trazado 26" d="M278.935,642.645c-1.787.047-2.474-.667-2.548-2.047-.073-1.267.494-2.128,1.781-2.148a2.167,2.167,0,0,1,2.288,2.314C280.522,642.018,279.968,642.818,278.935,642.645Z" transform="translate(-202.058 -230.483)" fill="#f7f6f7"/>
    <path id="Trazado_27" data-name="Trazado 27" d="M229.9,630.762c-.86-.12-1.414-.667-.907-1.234a57.95,57.95,0,0,1,4.168-4.228.86.86,0,0,1,1.227.127.807.807,0,0,1-.067,1.22c-1.207,1.281-2.454,2.514-3.715,3.741A2.508,2.508,0,0,1,229.9,630.762Z" transform="translate(-186.21 -226.036)" fill="#f4f3f3"/>
    <path id="Trazado_28" data-name="Trazado 28" d="M248.387,601.2c.58.227,1.234.78.667,1.294a47.28,47.28,0,0,1-5.062,4.162c-.46.327-1.174-.173-1.04-.994C243.092,604.961,247.7,601.16,248.387,601.2Z" transform="translate(-190.919 -218.075)" fill="#f8f7f7"/>
    <path id="Trazado_29" data-name="Trazado 29" d="M241.2,619.209a.987.987,0,0,1-.96-.46.667.667,0,0,1,.173-1c1.267-1.194,2.548-2.381,3.868-3.521a.86.86,0,0,1,1.227.113.713.713,0,0,1,.207.8A21.535,21.535,0,0,1,241.2,619.209Z" transform="translate(-189.97 -222.346)" fill="#f6f5f5"/>
    <path id="Trazado_30" data-name="Trazado 30" d="M201.36,660.31c.854.16,1.047.774.5,1.427a43.712,43.712,0,0,1-3.521,3.848c-.707.667-1.287.227-1.4-.667S200.433,660.27,201.36,660.31Z" transform="translate(-175.597 -237.764)" fill="#f7f6f6"/>
    <path id="Trazado_31" data-name="Trazado 31" d="M188.17,674.8c0-.807,3.128-4.562,3.741-4.668a.907.907,0,0,1,.98.393.727.727,0,0,1-.067,1.02c-1.007,1.247-2,2.494-3.041,3.721a.774.774,0,0,1-1.007.28A1.014,1.014,0,0,1,188.17,674.8Z" transform="translate(-172.677 -241.025)" fill="#f7f6f6"/>
    <path id="Trazado_32" data-name="Trazado 32" d="M219.929,641.453a1.833,1.833,0,0,1-.574-.387.867.867,0,0,1,.107-1.234q1.7-1.5,3.475-2.921a.847.847,0,0,1,1.227.053,1.227,1.227,0,0,1,.207.814C224.318,638.225,220.6,641.406,219.929,641.453Z" transform="translate(-182.995 -229.891)" fill="#f6f5f5"/>
    <path id="Trazado_33" data-name="Trazado 33" d="M268.461,633.2a1.641,1.641,0,0,1-1.887-1.761,1.414,1.414,0,0,1,1.514-1.6c1.334,0,1.767,1.007,1.854,2.141C270.021,633.006,269.328,633.232,268.461,633.2Z" transform="translate(-198.788 -227.613)" fill="#f8f7f7"/>
    <path id="Trazado_34" data-name="Trazado 34" d="M253.674,607.292c-.067.754-2.8,3.268-3.335,3.241a.867.867,0,0,1-.86-.874c-.073-.767,2.594-3.195,3.335-3.081a1.074,1.074,0,0,1,.86.714Z" transform="translate(-193.098 -219.866)" fill="#f3f2f2"/>
    <path id="Trazado_35" data-name="Trazado 35" d="M257.7,626.1c-.987,0-1.514-.42-1.441-1.374a1.467,1.467,0,0,1,1.514-1.427,1.574,1.574,0,0,1,1.654,1.567C259.511,626.073,258.411,625.94,257.7,626.1Z" transform="translate(-195.353 -225.436)" fill="#ecebeb"/>
    <path id="Trazado_36" data-name="Trazado 36" d="M347.661,690.9c-.067.494-.26.934-.8.954a.894.894,0,0,1-.947-1.04.827.827,0,0,1,.934-.774C347.434,690.05,347.634,690.377,347.661,690.9Z" transform="translate(-225.214 -247.663)" fill="#e4e3e3"/>
    <path id="Trazado_37" data-name="Trazado 37" d="M362.56,682.112c-.127.467-.353.834-.88.88a.747.747,0,0,1-.92-.76c0-.594.22-1.08.907-1.034C362.167,681.232,362.42,681.639,362.56,682.112Z" transform="translate(-230.163 -244.72)" fill="#ebeaeb"/>
    <path id="Trazado_38" data-name="Trazado 38" d="M369.488,693.985c.127-.514.373-.92.907-.867a.867.867,0,0,1,.76.954.707.707,0,0,1-.867.767.78.78,0,0,1-.8-.854Z" transform="translate(-233.069 -248.69)" fill="#f7f6f7"/>
    <path id="Trazado_39" data-name="Trazado 39" d="M359.235,703.1c.54,0,.867.214.88.767a.84.84,0,0,1-.767.934.827.827,0,0,1-.894-.82.754.754,0,0,1,.78-.88Z" transform="translate(-229.392 -252.016)" fill="#f5f4f4"/>
    <path id="Trazado_40" data-name="Trazado 40" d="M409.214,684.43a24.309,24.309,0,0,0-2.841,6.209c-.607,1.921-1.12,3.881-1.721,6-2.034-2-2.428-4.488-2.981-6.916-.2-.86.453-1.194,1.014-1.6A25.793,25.793,0,0,1,409.214,684.43Z" transform="translate(-243.778 -245.798)" fill="#0f0f10"/>
    <path id="Trazado_41" data-name="Trazado 41" d="M504.051,699.125c-3.468,2.181-7.049,3.3-10.551,4.862-.567-2.921.667-5.622-.28-8.617Z" transform="translate(-274.283 -249.441)" fill="#0a0b0c"/>
    <path id="Trazado_42" data-name="Trazado 42" d="M418.836,707.134c1-.767,1.874-1.38,2.668-2.074.46-.4,1.274-.74.714-1.627s-1.167-.32-1.781-.093c-2.528.92-4.8,2.748-8.337,2.081a81.656,81.656,0,0,0,17.08-7.55,20.972,20.972,0,0,1-3.281,4.455c-1.234,1.454-2.594,2.808-3.748,4.322C421.2,707.907,420.25,708.287,418.836,707.134Z" transform="translate(-247.263 -250.274)" fill="#0e0f0f"/>
    <path id="Trazado_43" data-name="Trazado 43" d="M436.2,700.77c0,3.2.94,6.256.6,9.384-.04.387.26,1.014-.5.994-.48,0-.474-.514-.574-.86a14.572,14.572,0,0,1-.193-3.881c0-.587-.147-1.074-.787-1.207s-.947.267-1.167.82c-.387.987-.794,2-1.247,2.921-.393.82-.934,1.334-2,.874-.453-.207-1.194.067-1.387-.554s.44-.907.774-1.274C431.917,705.639,434.071,703.284,436.2,700.77Z" transform="translate(-252.861 -251.24)" fill="#141515"/>
    <path id="Trazado_44" data-name="Trazado 44" d="M442.62,698.52l7.476,7.87c-1.334,1.374-2.187,1.267-3.061-.507-.594-1.2-.667-3.835-2.474-3.034-1.574.707-.073,2.968.454,4.222.834,2,.08,2.5-1.627,2.954C443.134,706.276,442.873,702.622,442.62,698.52Z" transform="translate(-257.429 -250.491)" fill="#0e0f0f"/>
    <path id="Trazado_45" data-name="Trazado 45" d="M459.322,701.548c-1.614,1.881-3.141,1.834-4.835.28a14.374,14.374,0,0,0-2.668-1.747c-.534-.313-1.12-1.007-1.781-.22s.08,1.22.554,1.681c.82.8,1.687,1.554,2.461,2.394.293.313,1.067.667.414,1.254-.494.447-.78-.12-1.094-.407l-6.983-6.5.507-.56Z" transform="translate(-258.352 -250.224)" fill="#161717"/>
    <path id="Trazado_46" data-name="Trazado 46" d="M394.76,710.318a8.07,8.07,0,0,1,3.488-2.194c3.8-1.474,3.728-1.487,3.861,2.4.033,1.12-.227,1.334-1.294,1.461C397.961,712.265,397.274,712.152,394.76,710.318Z" transform="translate(-241.488 -253.385)" fill="#0a0b0b"/>
    <path id="Trazado_47" data-name="Trazado 47" d="M396.411,720.956c-2.167-1.881-2.708-4.348-3.922-6.976,2.354,1.394,4.368,2.668,7.149,2.1C398.5,717.848,396.918,718.909,396.411,720.956Z" transform="translate(-240.732 -255.64)" fill="#151516"/>
    <path id="Trazado_48" data-name="Trazado 48" d="M398.768,704.006c-2.168,1.074-4.262,1.554-6,3.5-.08-2.054-.053-4.168,1-4.775C395.187,701.912,396.808,703.68,398.768,704.006Z" transform="translate(-240.814 -251.822)" fill="#191a1a"/>
    <path id="Trazado_49" data-name="Trazado 49" d="M403.87,728.228c2.721.28,6.222-2.621,7.95,2A11.857,11.857,0,0,1,403.87,728.228Z" transform="translate(-244.522 -260.171)" fill="#1f2020"/>
    <path id="Trazado_50" data-name="Trazado 50" d="M518.085,707.175a4.242,4.242,0,0,1-2.914-2.468c-.22-.474-.667-1.014-.18-1.387.353-.267,1.007-.18,1.527-.2.7,0,.587.52.607.94A8.449,8.449,0,0,0,518.085,707.175Z" transform="translate(-281.461 -252.023)" fill="#191a1a"/>
    <path id="Trazado_51" data-name="Trazado 51" d="M515.76,698.334a5.135,5.135,0,0,1,2.554-2.454C517.614,696.787,518.788,699.295,515.76,698.334Z" transform="translate(-281.79 -249.611)" fill="#1d1e1e"/>
    <path id="Trazado_52" data-name="Trazado 52" d="M252.5,664.36c-.62,3.628-2,6.156-6.342,5.449A30.184,30.184,0,0,1,252.5,664.36Z" transform="translate(-191.993 -239.113)" fill="#0f1010"/>
    <path id="Trazado_53" data-name="Trazado 53" d="M237.07,683.733a25.94,25.94,0,0,1,3.635-7.023c-.2,1.867-.934,3.388.587,4.515.347.26.38.54-.14.8A11.067,11.067,0,0,1,237.07,683.733Z" transform="translate(-188.965 -243.226)" fill="#171819"/>
    <path id="Trazado_54" data-name="Trazado 54" d="M248.918,675.222c-.133.62-.467.714-1.007.72-1.747,0-2.628.74-1.681,2.548.287.554.16.867-.353,1.02a.834.834,0,0,1-1.054-.627,2.734,2.734,0,0,1,.84-2.668,3.087,3.087,0,0,1,2.768-1.26A1.165,1.165,0,0,1,248.918,675.222Z" transform="translate(-191.523 -242.632)" fill="#252525"/>
    <path id="Trazado_55" data-name="Trazado 55" d="M550.435,706.553c-4.062-.327-8.67-.827-12.972-2.768a4.419,4.419,0,0,1-2.634-4.408c-.073-3.661,3.381-7.383,7.043-7.143,4.668.313,9.264.98,13.892,1.474,1.014.113,1.334.667,1.447,1.641a28.4,28.4,0,0,1-.667,9.784c-.167.84-.627.854-1.214,1.034C553.93,706.6,552.463,706.38,550.435,706.553Z" transform="translate(-288.141 -248.393)" fill="#030404"/>
    <path id="Trazado_56" data-name="Trazado 56" d="M267.435,717l-4.935-4.135c1.167-.914,2.341-1.187,3.381-.467A3.877,3.877,0,0,1,267.435,717Z" transform="translate(-197.435 -254.976)" fill="#131414"/>
    <path id="Trazado_57" data-name="Trazado 57" d="M406.652,692.03c-.167.667-.467,1-.994.954a.787.787,0,0,1-.774-.914c0-.574.367-.78.894-.76S406.472,691.77,406.652,692.03Z" transform="translate(-244.857 -248.089)" fill="#ebeaeb"/>
    <path id="Trazado_58" data-name="Trazado 58" d="M497.069,702.165a1.721,1.721,0,0,1-2.154-1.721c-.127-1.334.947-1.887,2-1.947a1.847,1.847,0,0,1,2,2C499.023,701.7,498.3,702.211,497.069,702.165Z" transform="translate(-274.844 -250.481)" fill="#f7f7f7"/>
    <path id="Trazado_59" data-name="Trazado 59" d="M401.8,711.94c-.353,0-.667-.44-.607-1.007a.847.847,0,0,1,.874-.814c.707,0,.894.44.86,1.007S402.664,711.967,401.8,711.94Z" transform="translate(-243.629 -254.354)" fill="#e1e0e0"/>
    <path id="Trazado_60" data-name="Trazado 60" d="M410.842,729.925c-.527-.293-1.04-.46-.947-1.027a.847.847,0,0,1,.934-.8.86.86,0,0,1,.834.914C411.642,729.6,411.075,729.618,410.842,729.925Z" transform="translate(-246.525 -260.341)" fill="#f5f4f5"/>
    <path id="Trazado_61" data-name="Trazado 61" d="M274.705,87.271c6.442-.1,13.492.954,20.535,2,7.663,1.127,15.2.44,22.849-.667,11.624-1.627,21.708-6.889,31.879-12.118,4.315-2.221,8.623-4.3,13.719-3.495a7.576,7.576,0,0,1,3.1.667c.794.494,1.527.514,1.867-.413s-.46-1.274-1.12-1.407c-4.468-.894-8.943-1.394-13.252.667-7.136,3.435-14.225,6.956-21.388,10.337a55.466,55.466,0,0,1-8.67,2.741c-1.561.434-2-.053-2.408-1.334a27.07,27.07,0,0,0-5.1-9.87c-4.088-4.735-9.51-6.763-15.426-7.75-5.335-.887-10.671-2-16.073-2.5-5.255-.507-10.5-1.107-15.759-1.7a47.952,47.952,0,0,0-5.9-.754c-5.609.107-11.178-.667-16.8-.3-5.4.327-10.137,2.494-15.006,4.522-16.14,6.709-31.292,15.426-47.011,22.982a23.4,23.4,0,0,1-13.6,2.288c-7.336-1.047-7.269-7.55-4.268-11.444,3.935-5.109,9.3-8.3,14.832-11.338a115.585,115.585,0,0,1,16.673-7.5c10.424-3.721,19.841-9.337,29.064-15.339,7.1-4.668,14.419-8.9,21.788-13.085,6.036-3.435,12.558-4.195,19.267-3.935,5.135.207,10.251.74,15.339,1.114a39.949,39.949,0,0,0,12.531-1.374c13.859-3.481,26.677-.4,39.448,4.9,19.267,8,38.228,16.72,57.829,23.9,9.944,3.641,20.294,5.462,30.678,7.129a112.71,112.71,0,0,1,28.771,8.75,178.236,178.236,0,0,1,42.236,26.39,342.353,342.353,0,0,1,25.917,24.83c3.481,3.655,6.249,7.9,6.669,13.265a10.238,10.238,0,0,1-.667,4.935c-5.415,12.545-12.438,23.923-24.349,31.345-5.869,3.655-12.2,6.416-19.441,5.676a17.754,17.754,0,0,1-11.811-5.862c-8.543-9.544-16.987-19.167-25.576-28.678a94.378,94.378,0,0,0-12.672-11.391c-5.175-4-11.5-5.455-17.72-7.036-8.67-2.221-17.52-2.534-26.457-2.081-8,.413-16.093,1.194-24.009-.754-6.222-1.527-12.338-3.4-18.407-5.435-11.784-3.942-23.862-4.328-36.081-3.014a8.763,8.763,0,0,1-4.668-.44c-2.534-1.14-5.209-.907-7.89-.667-7.97.667-15.926.227-23.889-.28a51.982,51.982,0,0,1-16.513-3.408c-3.521-1.427-6.349-3.5-6.889-7.523-.62-4.635,1.134-8.31,4.855-11.164C261.14,87.457,267.523,87.231,274.705,87.271Z" transform="translate(-164.95 -26.75)" fill="#030404"/>
    <path id="Trazado_62" data-name="Trazado 62" d="M277.768,154.01c.474.373.707.547.927.734,2.554,2.127,3.555,1.807,4.328-1.374.307-1.254.627-2.508.9-3.775a1.334,1.334,0,0,0-.26-1.481c-.58-.534-1.007-.053-1.434.18-1.127.667-2.228,1.334-3.568,2.134.594-3.561,1.187-6.929,1.7-10.3s.967-6.936,1.454-10.5c2.188.72,4.268,1.434,6.376,2.087,1.047.32.9,1.047.767,1.827a209.813,209.813,0,0,0-2.594,35.467c0,5.049,1.24,10.044.854,15.126a29.4,29.4,0,0,1-3.908,13.012c-1.334,2.214-3.095,3.821-5.722,3.435-2.954-.434-5.375-2-6.042-5.169-1.154-5.529-2.067-11.1-3.221-16.626-1.621-7.77-1.954-15.646-2.061-23.529a100.622,100.622,0,0,1,2.234-24.176c.54-2.354.754-4.782,1.534-7.116a39.069,39.069,0,0,0-5.869,11.378c-2.261,6.736-2.668,13.772-3.681,20.675s-2.308,13.665-5.435,19.961c-.207.407-.387.827-.62,1.22-1.067,1.741-2.274,3.295-4.608,3.255s-3.715-1.614-4.7-3.5a11.811,11.811,0,0,1-1.034-7.389,132.971,132.971,0,0,0,1.667-26.544c-.667-13.205,4.095-24.936,10-36.381a65.224,65.224,0,0,1,14.532-19.027c3.014-2.708,6.342-5.035,10.184-5.922a24.5,24.5,0,0,1,9.664-.193c7.7,1.334,15.513,1.727,23.256,2.708a178.073,178.073,0,0,1,18.254,3.228,8.277,8.277,0,0,1,3.021,1.481c-1.734.08-3.475.253-5.209.227-8.61-.12-17.073,1.581-25.65,2-3.2.153-5.429-.36-6.709-3.508-.52-1.274-4.915-1.194-5.622,0-.46.794.087,1.247.667,1.707a11.438,11.438,0,0,1,2.788,2.388c-3.775.867-7.45,1.734-11.138,2.534a7.923,7.923,0,0,0-4.909,3.408,167.447,167.447,0,0,1-11.2,14.172,13.079,13.079,0,0,1-2.894-5.569c-.413-1.487-1.054-1.774-2.261-.96s-3.335.667-3.461,2.561c-.14,2,1.667,2.954,3.108,3.935,1.06.727,2.241,1.287,3.788,2.161-8.67,7.083-13.939,15.666-12.918,27.024-2,0-3.035-2.541-4.829-.987-.9.774-.667,5.642.167,6.409,1.334,1.22,2.154-.46,3.428-.707-.253,4.4-1.334,8.59-2.081,12.838a87.2,87.2,0,0,0-1.334,10.924c0,.82-.2,1.874.894,2.074.974.173,1.14-.887,1.441-1.527,1.16-2.481,2.214-5.015,3.375-7.49.667-1.494.667-2.521-1.281-2.734-.954-.107-1.434-.313-1.187-1.581,1.854-9.45,2.974-19.014,4.348-28.538a10.312,10.312,0,0,1,2.668-5.022c-.173,1.834-.4,3.2-.407,4.568,0,1.187-.54,2.841,1.561,2.894,1.881.047,3.835-1.921,3.588-3.575-.347-2.341-.667-4.668-1.167-7a1.894,1.894,0,0,1,.527-2c4.922-5.042,9.83-10.1,14.185-16.4.067,1.24.127,1.934.133,2.634,0,1.04.213,1.834,1.534,1.621,1.06-.167,2-.413,1.694-1.841-.173-.82-.333-1.647-.487-2.468-.7-3.768.574-5.936,4.295-7a99.965,99.965,0,0,1,26.237-3.548,1.181,1.181,0,0,0,.053.38c.247,1.334-1.334,3.188.153,4s3.335-.627,4.975-1.047c.927-.233.934-.92.387-1.574s-1.114-1.187-1.907-2c7.756-1.334,15.259-1.381,22.8-1.334,3.335,0,4.5,2.441,6.069,4.342,1.854,2.228,2.668,5.1,3.675,7.816.287.767.327,1.194-.854,1.487-10,2.488-20.008,1.774-30.1.22-8.943-1.381-18.047-2.3-26.964-.167-7.443,1.787-13.945,7.216-13.438,15.626a10.585,10.585,0,0,0,3.882,7.51,3.181,3.181,0,0,1-1.114,5.2,3.148,3.148,0,0,0-1.781,4.668c.714,1.254,1.707.3,2.741.307-.914,6-2.054,11.911-3.335,17.773a73.043,73.043,0,0,0-1.4,7.65,3.165,3.165,0,0,1-2.274,3.055,2.043,2.043,0,0,0-1.687,2.308c-.06,2.147-.113,4.295-.127,6.442,0,.667-.127,1.487.767,1.721s1.294-.46,1.661-1.18c.627-1.214,1.334-2.374,2.1-3.695a7.781,7.781,0,0,1,1.154,3.461c1.007,4.922,2.881,9.63,3.515,14.672.127,1.014.053,2.6,1.267,2.668,1.654.08,1.12-1.761,1.374-2.714a18.834,18.834,0,0,0,.707-5.449c0-1.247-.5-1.847-1.647-1.214s-1.334-.193-1.521-.887c-1.294-5.1-2.9-10.124-3.628-15.339-.54-3.868.794-7.516,1.461-11.191C277.4,155.464,277.568,154.884,277.768,154.01Z" transform="translate(-191.235 -44.844)" fill="#030404"/>
    <path id="Trazado_63" data-name="Trazado 63" d="M329.492,176.62c-4.2,2.228-4.308,5.709-4.155,9.47.153,3.588-.207,7.2-.253,10.8,0,1.334-.58,2-1.907,1.9-.834-.073-1.707-.087-1.814.867a4.141,4.141,0,0,0,.787,2.974c.667.827,1.374.12,2.141-.313-.413,5.169-.827,10.164-1.187,15.159-.047.7-.393,1.661.58,2s1.547-.413,2.128-1.02a4.269,4.269,0,0,0,.874-3.228c-.047-8.583.06-17.173.6-25.77.7-.22.96.587,1.547.707.467.093.927.333,1.254-.12.794-1.107.287-2.361.287-3.541a1.647,1.647,0,0,0-1.24-1.487c-.667-.253-1.921.62-1.894-.874,0-1.381-.487-2.834.887-4.048a55.354,55.354,0,0,0,7.336-8.216c1-1.334,1.854-2.714,2.754-4.055.634.22.5.667.514,1.007a1.761,1.761,0,0,0,1.174,1.794c.74.2,1.174-.56,1.634-1.06a1.554,1.554,0,0,0,.24-2.081c-.2-.32-.434-.62-.667-.94-.747-1.1-1.6-2.047-.5-3.561.98-1.334,1.467-2.821,3.715-2.528a17.027,17.027,0,0,0,5.709-.407,11.377,11.377,0,0,1,6.316.767c-4.668,4.042-8.07,9.03-11.738,13.8-6,7.736-9.19,16.6-10.918,26.07-.9,4.955-1.534,9.957-2.334,14.932a13.825,13.825,0,0,1-2.341,5.689c-2,2.881-3.875,3.768-6.489,3.021-3.5-1.007-5.375-3.141-5.409-6.482-.053-5.289-.193-10.6.113-15.873.307-5.442.26-10.884.34-16.32.1-6.789,1.727-13.292,3.695-19.728a22.294,22.294,0,0,1,3.081-5.562c.327-.507.547-.567,1.02-.494,4.348.667,8.723.4,13.092.4,1.014,0,1.707,0,.954,1.367-2.248,4-4.322,8.056-7.283,11.618-1.114,1.334-1.661,1.127-2.488,0a4.26,4.26,0,0,1-.787-1.127c-.6-2.568-1.827-1.774-3.235-.707-1.847,1.407-1.821,2.354.233,3.455C326.871,175.373,327.918,175.833,329.492,176.62Z" transform="translate(-215.602 -71.069)" fill="#030404"/>
    <path id="Trazado_64" data-name="Trazado 64" d="M284.533,52.2c3.014,2.294,6.036,4.575,9.037,6.889,1.914,1.481,1.814,2.121-.387,3.048-.347.153-.7.3-1.054.44-3.608,1.467-3.6,1.454-6-1.6a42.6,42.6,0,0,1-5.589-8.89,2.234,2.234,0,0,0-1.747-1.574c-6.6-1.167-13.178-2.394-19.774-3.595a8.67,8.67,0,0,0-8,2.308,77.543,77.543,0,0,0-8.67,10.1c-2.234,2.994-4.635,4.482-8.323,2.888a3.481,3.481,0,0,0-3.088.267q-5.335,2.808-10.791,5.489c-1.06.52-1.541.84-.667,2.061.667.907,2.1,1.961,1.367,3.135-.907,1.467-2.874,1.574-4.455,2-.707.207-1.247-.347-1.334-1.194s-.307-1.8-.5-2.888c-3.808,1.961-7.59,3.721-11.171,5.836-1.641.96-2.468,2.908-3.008,4.742s-1.754,2.408-3.588,2.434c-3.375.04-6.743.28-10.111.42-.667,0-1.474.14-1.661-.787s.514-1.18,1.154-1.467a26.01,26.01,0,0,1,3.135-1.374c11.131-3.381,20.675-10,30.945-15.112,3.408-1.707,6.843-3.375,10.191-5.189,1.861-1.014,3.675-.44,5.335.1,1.941.634,3.021,0,4.055-1.447.6-.854,1.334-1.627,2.281-2.761-1.814.14-3.208.253-4.608.353-2,.147-2.828-1.06-2.881-2.774s1.2-2.2,2.781-2.254a13.071,13.071,0,0,1,5.7,1.5,1.461,1.461,0,0,0,2.094-.527c.927-1.214,2-2.328,3.008-3.475,3.248-3.681,7.149-5.4,12.085-4.048a2.161,2.161,0,0,0,1.874-.433,103.088,103.088,0,0,1,12.778-6.569c2.668-1.174,2.908.847,3.695,2.328.907,1.707.267,2.794-1.394,3.381-2.581.9-5.2,1.721-8,2.668,5.676,1.414,11.291,2.414,16.906,3.375,5.062.874,10.191,1.2,15.286,1.741a3.335,3.335,0,0,0,2.481-.894q7.73-5.549,15.473-11.071a17.238,17.238,0,0,1,1.954-1.2,3.752,3.752,0,0,1,5.235,3c.073.96-.614,1.274-1.24,1.727a58.936,58.936,0,0,1-15.893,8.457,2.736,2.736,0,0,0-.567.44c10.071.707,19.821,2.614,29.625,4.128,1.734.273,3.495.427,5.235.667a3.548,3.548,0,0,0,4.088-2.408c2.241-5.175,2.288-5.222,6.989-2.228a75.362,75.362,0,0,0,18.967,8.877,15.619,15.619,0,0,0,4.708.867c.667,0,1.334.12,1.434.84.18,1.02-.727,1.027-1.334,1.14-1.807.32-3.621.587-5.429.867-4.809.754-9.177,2.774-13.485,4.869-2,.967-3.468.9-5.029-.84-2.714-3.021-5.642-5.849-8.443-8.8a3.9,3.9,0,0,0-2.334-1.334c-4.975-.72-9.957-1.427-15.032-2.147,2.841,5.475,5.629,10.864,8.437,16.246a18.134,18.134,0,0,0,4.168,5.142c.527.467,1.027,1.034.74,1.794-.327.887-1.154.6-1.787.507-2.114-.307-4.222-.667-6.329-1.047a3.628,3.628,0,0,1-3.088-2.874c-1.887-6.329-4-12.585-5.9-18.914a2.441,2.441,0,0,0-2.334-2c-8.337-1.267-16.76-1.667-25.15-2.381-4.268-.367-8.51-.947-12.765-1.427Z" transform="translate(-171.616 -30.454)" fill="#fefefe"/>
    <path id="Trazado_65" data-name="Trazado 65" d="M426.63,124.118a88.5,88.5,0,0,0-20.328,8.763,3.535,3.535,0,0,1-3.261.287c-5.7-1.874-11.5-3.468-17.267-5.182a3.031,3.031,0,0,0-1.947.307c-3.335,1.074-6.049,3.228-9.1,4.8a7.571,7.571,0,0,1-7.143.373c-2.974-1.334-6.189-2.107-9.237-3.295-1.1-.427-1.607-.28-2.167.667-1.267,2.261-3.455,3.4-5.736,4.348-.667.28-1.574.514-2.087-.3s.333-1.16.78-1.647a7.681,7.681,0,0,0,.073-10.844c-.36-.393-.84-.74-.607-1.334s.667-.667,1.294-.667c4.055.133,6.889,2.508,7.736,6.729,3.395-2.114,7.109-3.4,10.671-4.989a5.609,5.609,0,0,1,4.415-.167,95.486,95.486,0,0,0,10.631,3.455,4.328,4.328,0,0,0,3.668-.56c4.762-3.188,10.177-5.182,15.072-8.13a4.869,4.869,0,0,1,3.915-.427c6.8,1.574,13.559,3.295,20.588,5.269a23.152,23.152,0,0,0-6.823-12.371c-.554-.574-1.654-.88-1.334-1.874s1.414-1.08,2.328-1.147c6.389-.487,11.631,1.814,15.306,7.009,3.781,5.335,3.8,11.091.847,16.88s-7.783,9.317-13.692,11.544c-.42.16-.894.193-1.334.347a1.334,1.334,0,0,1-1.587-.607c-.594-.707.087-1.074.467-1.521C424.643,135.336,425.43,129.747,426.63,124.118Z" transform="translate(-225.98 -53.174)" fill="#fefdfd"/>
    <path id="Trazado_66" data-name="Trazado 66" d="M632.525,156.946c.387,13.118-9.764,23.562-22.575,23.129a16.106,16.106,0,0,1-12.318-6.156c-3.228-4-5.822-8.437-5.5-13.705.907-14.832,12.431-23.856,24.129-23.382.954.04,2.228-.14,2.461,1.06s-1.047,1.334-1.834,1.667a27.1,27.1,0,0,0-13.479,12.878,13.859,13.859,0,0,0,10.2,20.094,11.338,11.338,0,0,0,8.9-2.914,17.351,17.351,0,0,0,6-9.49c.58-2.668,2.061-5.109,1.781-8a1.167,1.167,0,0,1,.927-1.387c.907-.113,1.194.734,1.234,1.334C632.6,153.731,632.525,155.345,632.525,156.946Z" transform="translate(-307.22 -63.399)" fill="#fff"/>
    <path id="Trazado_67" data-name="Trazado 67" d="M573.222,140.278a2.308,2.308,0,0,1-.393.594c-.667.58-1.14,0-1.607-.327-3.335-2.147-6.729-4.235-9.964-6.536-1.567-1.114-2.5-1.174-4,.28-2.988,2.961-6.262,5.642-9.457,8.4-.494.427-1.027,1.334-1.907.507s-.1-1.427.347-2c2.808-3.435,5.6-6.9,8.523-10.231.9-1.027,1.054-1.587.047-2.594-4.328-4.342-7.843-9.424-12.4-13.559a2.594,2.594,0,0,1-.847-1.06c-.167-.667-1.08-1.267-.233-2.047s1.434-.033,2,.393c4.9,3.8,9.8,7.59,14.632,11.484,1.247,1,2.067,1.334,3.395.067,2.734-2.668,5.649-5.189,8.49-7.756.62-.554,1.374-1.427,2.161-.754s-.08,1.5-.574,2.114c-2.554,3.155-5.1,6.316-7.716,9.417-.727.86-.82,1.334,0,2.261,2.888,3.175,5.662,6.449,8.477,9.69C572.581,139.09,573.182,139.4,573.222,140.278Z" transform="translate(-290.186 -54.921)" fill="#fefdfd"/>
    <path id="Trazado_68" data-name="Trazado 68" d="M509.208,104.626a4.311,4.311,0,0,1-4.668-3.5,1.514,1.514,0,0,0-1.094-1.214c-5.255-2.041-10.451-4.2-15.5-6.716-.614-.307-1.414-1.2-2.194-.073a2.141,2.141,0,0,0-.173,2.494c.954,1.821,1.761,3.715,2.568,5.6.56,1.334,1.054,2.461,2.754,2.894s1.954,2.034,1.374,3.561-1.7,2.388-3.428,1.787c-1.554-.54-2.668-1.734-1.947-3.335s.153-2.9-.44-4.262c-.734-1.674-1.514-3.335-2.254-5A4.107,4.107,0,0,0,481.7,94.2c-1.827-.627-1.827-2.461-1.607-4.115a3.009,3.009,0,0,1,5.849-.507,1.821,1.821,0,0,0,1.18,1.234c5.455,2.521,10.9,5.062,16.546,7.156.48.18,1.067.994,1.787.173s.1-1.334-.3-1.967a88.758,88.758,0,0,0-6.189-8.256,3.922,3.922,0,0,0-1.881-1.187c-1.681-.667-2.268-1.727-1.387-3.408s2.474-2.341,3.755-1.214c3.161,2.788,7.243,3.175,10.951,4.515a3.34,3.34,0,0,0,3.708-.407c1.374-1.074,2.928.207,3.861,1.407,1.014,1.334.527,2.668-.7,3.608a2.441,2.441,0,0,1-3.621-.667c-1.047-1.561-2.481-1.781-4-2.228-2.768-.827-5.5-1.781-8.27-2.628-.427-.127-.987-.774-1.4-.067-.34.58.213.987.56,1.381a63.663,63.663,0,0,1,6.069,8.056A4.975,4.975,0,0,0,509.4,97.23c2.714.947,3.862,3.681,2.628,5.829a2.761,2.761,0,0,1-2.814,1.567Z" transform="translate(-269.877 -44.992)" fill="#fdfdfd"/>
    <path id="Trazado_69" data-name="Trazado 69" d="M612.952,167.055c-.74,0-1.694,1.034-2.128-.2-.347-.98.667-1.28,1.26-1.627,1.407-.807,2.928-1.507-.06-2.188a1.114,1.114,0,0,1-.634-.854.827.827,0,0,1,.96-.754c.947.06,1.381-.16,1.7-1.267.4-1.387-.387-1.294-1.154-1.607a.887.887,0,0,1-.387-1.187c.207-.58.7-.48,1.147-.467a2.948,2.948,0,0,0,2.828-3.955c-.227-.567-.387-1.034.14-1.414a.847.847,0,0,1,1.334.36c.453.974.947.78,1.794.407,1.18-.514.874-1.194.467-1.927-.347-.62-.193-1.034.387-1.287s1-.04,1.274.574c.32.727.507,1.647,1.747,1.007,1.014-.52,2.534-.407,2.188-2.254-.093-.487-.087-1.02.667-1.227,1.594-.44.393,2.508,2.161,1.721,1.581-.707,1.967,0,1.754,1.434-.113.76.387.614.834.667.554.06,1.087.267,1.08.94,0,.894-.767.894-1.334.854a1.587,1.587,0,0,0-1.821,1.3c-.18.56-.7,1.094.48,1.08a.874.874,0,0,1,.807.96c-.08.667-.667.734-1.2.854-.927.213-1.954.133-2.468,1.334-.327.754-1.047,1.334.233,1.881.474.207.427.807.16,1.207a.928.928,0,0,1-1.18.293c-1.707-.5-4.248,1.781-3.9,3.535.24,1.254-.16,1.607-1.287,1.24-1.821-.587-2.981.387-2.568,2.294.14.667.4,1.207-.354,1.547s-1.074-.107-1.274-.8c-.313-1.054-.847-.62-1.541-.28s-1.281,1.334-2.234.574C611.665,168.862,612.919,168.015,612.952,167.055Z" transform="translate(-313.431 -66.839)" fill="#fdfcfc"/>
    <path id="Trazado_70" data-name="Trazado 70" d="M520.572,134.76c-.44.527-.8,1.014-1.227,1.434-1.574,1.561-3.094,3.195-4.788,4.615-1.254,1.054-1.114,1.841-.167,2.954,1.687,2,3.335,4,4.889,6.062.373.474,1.1,1,.354,1.767s-1.247.053-1.767-.3c-2.261-1.554-4.555-3.068-6.729-4.735a2.8,2.8,0,0,0-3.481-.36c-1.287.74-2.534,1.374-3.848,2-.62.28-1.334,1.1-2,.2s.273-1.467.84-2.041c1.187-1.194,2.321-2.441,3.581-3.561a1.538,1.538,0,0,0,.247-2.314c-1.24-2-2.388-4.068-3.608-6.082-.34-.567-.667-1.16-.033-1.6s1.094,0,1.554.5c1.454,1.674,3,3.268,4.468,4.929a1.4,1.4,0,0,0,2.1.32c2.481-1.481,5.1-2.734,7.476-4.4.427-.293,1.054-.794,1.647-.147A6.666,6.666,0,0,1,520.572,134.76Z" transform="translate(-277.066 -62.002)" fill="#fdfdfd"/>
    <path id="Trazado_71" data-name="Trazado 71" d="M302.552,133.826c-.14-2.574.667-5.009,1.06-7.5.273-1.834,2-1.807,3.455-2a37.972,37.972,0,0,1,13.645,1.16,25.717,25.717,0,0,1,2.668.667c4.1,1.427,6.456,4.809,5.389,8.57s-4.055,7.923-8.883,7.47c-5.109-.474-10.191-1.194-15.279-1.8a1.572,1.572,0,0,1-1.627-1.761C302.932,137.027,302.7,135.427,302.552,133.826Z" transform="translate(-210.77 -59.167)" fill="#fbfbfb"/>
    <path id="Trazado_72" data-name="Trazado 72" d="M647.695,140.04c-.44,1.547-1.527,2.154-2.6,1.421-1.734-1.18.367-1.967.667-2.994-1.614-1.3-3.561-2-5.3-3.1-1.174-.74-1.834.207-2.721.433-.667.173-1.414.407-1.941-.187a1.107,1.107,0,0,1,.3-1.767c.467-.347.52-.667,0-1.02-2.668-2.154-4.388-5.575-8.116-6.436a.794.794,0,0,1-.72-.747c-.06-.6.347-.78.78-.967,2.134-.9,5.689.734,6.4,2.994,1.154,3.655,4.542,4.7,7.39,6.382.414.247.667-.26.92-.474,1.334-.954,2-.133,2.361.994.193.627,0,1.367.754,1.767,2.861,1.494,4.562,4.255,6.883,6.342a9.472,9.472,0,0,1,2.354,3.868,1.134,1.134,0,0,1-.227,1.434c-.567.54-1.02.113-1.427-.14a7.577,7.577,0,0,1-2.874-3.775,11.337,11.337,0,0,0-2.888-4.028Z" transform="translate(-318.929 -59.272)" fill="#fcfbfb"/>
    <path id="Trazado_73" data-name="Trazado 73" d="M606.3,114.52c2.988,0,5.755,2.614,5.682,5.4a6.383,6.383,0,0,1-6,5.809c-2.441.04-4.822-2.668-4.849-5.435C601.076,116.988,603.277,114.54,606.3,114.52Z" transform="translate(-310.225 -55.974)" fill="#fefdfd"/>
    <path id="Trazado_74" data-name="Trazado 74" d="M567.848,95.783a8.594,8.594,0,0,1-.427,1.334,3.335,3.335,0,0,0,.8,4.408c.52.467,1.007,1.174.527,1.814-.6.82-1.387.307-2-.127-1.6-1.14-3.135-1.661-4.735.033a1.494,1.494,0,0,1-2.081.24c-.787-.594-.233-1.334.127-1.821,1.7-2.167.614-3.728-.887-5.335-.487-.527-1.534-1.207-.667-2.1.747-.767,1.561-.053,2.294.307a1.94,1.94,0,0,1,.567.387c1.667,1.847,3.195,1.414,4.668-.247.333-.367.734-.867,1.334-.5S567.928,95.056,567.848,95.783Z" transform="translate(-295.917 -49.101)" fill="#fdfcfc"/>
    <path id="Trazado_75" data-name="Trazado 75" d="M688.7,180.6c2.221.46,4.5.033,6.589,1.08.98.487,1.654.994.954,2.047-1.054,1.587-2.187,3.121-3.381,4.608-.867,1.074-1.8,1.074-2.528-.233-.994-1.794-2.054-3.555-2.968-5.389C686.662,181.31,687.249,180.51,688.7,180.6Z" transform="translate(-338.849 -77.98)" fill="#fdfcfc"/>
    <path id="Trazado_76" data-name="Trazado 76" d="M651.32,224a23.876,23.876,0,0,1,7.1,2.341c1.481.727,1.387,1.914.2,2.894s-2.488,1.727-3.575,2.814c-.707.714-1.367.367-1.794-.474-.954-1.887-2-3.721-2.834-5.669C649.886,224.6,650.667,223.959,651.32,224Z" transform="translate(-326.582 -92.438)" fill="#fcfbfb"/>
    <path id="Trazado_77" data-name="Trazado 77" d="M665.808,211.12c1.681.347,3.481.667,5.255,1.1s1.881,1.394.767,2.628c-1.02,1.127-2.128,2.188-3.188,3.288s-1.874.9-2.621-.233-1.521-2.461-2.254-3.708c-.407-.667-1.147-1.334-.58-2.268S664.821,211.32,665.808,211.12Z" transform="translate(-330.826 -88.149)" fill="#fdfdfd"/>
    <path id="Trazado_78" data-name="Trazado 78" d="M639.885,245.037a1.107,1.107,0,0,1-1.114-.96c-.554-2-1.214-3.928-1.687-5.922-.367-1.554.387-2.147,1.881-1.587a21.574,21.574,0,0,1,5.549,3.161c1.274.987,1.174,2.067-.267,2.894S641.332,244.236,639.885,245.037Z" transform="translate(-322.17 -96.556)" fill="#fdfcfc"/>
    <path id="Trazado_79" data-name="Trazado 79" d="M678.841,195.606a17.493,17.493,0,0,1,4.909,1.12c1.167.48,1.487,1.127.454,2.221a29.382,29.382,0,0,0-2.614,3.441c-.88,1.267-1.687,1.487-2.568,0s-1.741-2.668-2.514-4.095C675.286,196.079,675.646,195.519,678.841,195.606Z" transform="translate(-335.116 -82.979)" fill="#fcfcfc"/>
    <path id="Trazado_80" data-name="Trazado 80" d="M574.644,171.386a3.448,3.448,0,0,1-3.335-3.541,3.675,3.675,0,0,1,3.615-3.335,3.615,3.615,0,0,1,3.268,3.728A3.481,3.481,0,0,1,574.644,171.386Z" transform="translate(-300.292 -72.624)" fill="#fcfcfc"/>
    <path id="Trazado_81" data-name="Trazado 81" d="M665.216,190.42c.927.273,1.287.8.614,1.514q-4.868,5.189-10.237,9.877a.747.747,0,0,1-1.194-.067.88.88,0,0,1,0-1.254q5.089-4.955,10.244-9.87C664.79,190.48,665.056,190.473,665.216,190.42Z" transform="translate(-327.88 -81.254)" fill="#f9f8f8"/>
    <path id="Trazado_82" data-name="Trazado 82" d="M634.023,223.127a.594.594,0,0,1-.594-.434,1.127,1.127,0,0,1,.56-1.374,35.586,35.586,0,0,0,5.456-4.9c1.16-1.22,2.281-2.474,3.421-3.715.494-.54,1.08-1.04,1.761-.447.8.667.053,1.227-.387,1.707-2.668,2.921-5.235,6-8.517,8.33A2.48,2.48,0,0,1,634.023,223.127Z" transform="translate(-320.963 -88.438)" fill="#f9f8f8"/>
    <path id="Trazado_83" data-name="Trazado 83" d="M685.829,168.111a10.744,10.744,0,0,1-.747,1.334,69.235,69.235,0,0,1-7.883,9.217c-.494.474-1.027,1.394-1.867.514s.2-1.334.667-1.814a73.091,73.091,0,0,0,7.8-9.29c.347-.507.627-1.1,1.4-.867A.94.94,0,0,1,685.829,168.111Z" transform="translate(-334.834 -73.504)" fill="#faf9f9"/>
    <path id="Trazado_84" data-name="Trazado 84" d="M583.666,187.761c-1.607-.093-2.608-.76-2.668-2.474-.087-1.954,1.334-2.594,2.761-2.668,1.607-.067,2.3,1.2,2.341,2.768C586.113,187.087,585.066,187.627,583.666,187.761Z" transform="translate(-303.518 -78.655)" fill="#fafafa"/>
    <path id="Trazado_85" data-name="Trazado 85" d="M595.667,198a1.627,1.627,0,0,1-1.807,1.867c-1.674,0-2.281-1.047-2.281-2.494a1.681,1.681,0,0,1,1.941-1.761C595.026,195.656,595.653,196.57,595.667,198Z" transform="translate(-307.043 -82.976)" fill="#f6f5f6"/>
    <path id="Trazado_86" data-name="Trazado 86" d="M642.39,207.785a2.827,2.827,0,0,1-.394.72c-1.227,1.254-2.468,2.488-3.715,3.715-.407.4-.887.667-1.387.173s-.353-1.08.14-1.567c1.187-1.18,2.348-2.388,3.568-3.535C641.3,206.638,641.957,206.718,642.39,207.785Z" transform="translate(-322.034 -86.735)" fill="#f2f1f1"/>
    <path id="Trazado_87" data-name="Trazado 87" d="M663.7,184.763a5.1,5.1,0,0,1-.514.78c-1.254,1.334-2.508,2.668-3.8,4a.994.994,0,0,1-1.607,0c-.38-.5,0-.98.394-1.387,1.247-1.24,2.468-2.508,3.708-3.748.313-.313.667-.714,1.167-.313A6.369,6.369,0,0,1,663.7,184.763Z" transform="translate(-329.042 -79.092)" fill="#f6f5f6"/>
    <path id="Trazado_88" data-name="Trazado 88" d="M622.478,236.412c-.74-.1-1.114-.774-.62-1.247a55.1,55.1,0,0,1,4.875-4.088c.667-.527,1.154.16,1.247.767C628.1,232.63,623.439,236.485,622.478,236.412Z" transform="translate(-317.055 -94.733)" fill="#f6f6f6"/>
    <path id="Trazado_89" data-name="Trazado 89" d="M631.186,219.591a3.863,3.863,0,0,1-.46.667c-1.167,1.1-2.354,2.174-3.528,3.268-.434.407-.907.614-1.4.16a.874.874,0,0,1,0-1.394c1.227-1.147,2.454-2.294,3.748-3.335C630.265,218.363,630.805,218.75,631.186,219.591Z" transform="translate(-318.326 -90.664)" fill="#f5f5f5"/>
    <path id="Trazado_90" data-name="Trazado 90" d="M674.59,172.724c0,.8-3.4,4.668-4,4.809a.854.854,0,0,1-1-.367.92.92,0,0,1,.22-1.227c1.034-1.12,2.061-2.254,3.061-3.4a1.087,1.087,0,0,1,1.4-.393C674.483,172.25,674.543,172.631,674.59,172.724Z" transform="translate(-332.979 -75.129)" fill="#faf9fa"/>
    <path id="Trazado_91" data-name="Trazado 91" d="M683.471,163c0,.78-3.141,4.575-3.721,4.749-.46.14-.707-.14-.967-.413a.707.707,0,0,1,.04-1.014c.987-1.254,1.941-2.534,2.968-3.755a.94.94,0,0,1,1.26-.113A1.622,1.622,0,0,1,683.471,163Z" transform="translate(-336.024 -71.876)" fill="#f4f3f3"/>
    <path id="Trazado_92" data-name="Trazado 92" d="M648.276,201.5c-.667,0-.934-.067-1.107-.387a.94.94,0,0,1,.213-1.234c1.074-.96,2.181-1.881,3.335-2.788a.947.947,0,0,1,1.421,0,.934.934,0,0,1-.26,1.387C650.577,199.551,649.323,200.611,648.276,201.5Z" transform="translate(-325.512 -83.369)" fill="#f7f6f6"/>
    <path id="Trazado_93" data-name="Trazado 93" d="M619.44,232.2c-.82-.42-1.534-.78-.84-1.574a14.483,14.483,0,0,1,2.668-2.461c.8-.54,1.467.12,1.214.887C621.955,230.542,620.427,231.149,619.44,232.2Z" transform="translate(-315.951 -93.759)" fill="#f4f3f3"/>
    <path id="Trazado_94" data-name="Trazado 94" d="M605.821,207.515c-.107.92-.474,1.587-1.527,1.567-1.4,0-1.714-1.04-1.841-2.128s.667-1.114,1.487-1.147A1.582,1.582,0,0,1,605.821,207.515Z" transform="translate(-310.661 -86.378)" fill="#f9f8f8"/>
    <path id="Trazado_95" data-name="Trazado 95" d="M616.31,214.176c-.2,1.094-.76,1.561-1.754,1.514a1.447,1.447,0,0,1-1.447-1.454c-.067-1.134,1.027-1.187,1.754-1.294C615.7,212.815,616.163,213.476,616.31,214.176Z" transform="translate(-314.214 -88.75)" fill="#f4f3f3"/>
    <path id="Trazado_96" data-name="Trazado 96" d="M513.893,136.648a.76.76,0,0,1-.8-.907c.04-.567.293-1.04.98-.92a.894.894,0,0,1,.754,1.147.787.787,0,0,1-.934.68Z" transform="translate(-280.897 -62.729)" fill="#e1dfe0"/>
    <path id="Trazado_97" data-name="Trazado 97" d="M526.752,147.919a.767.767,0,0,1,.554.967c-.08.42-.327.86-.887.827-.667-.033-.874-.494-.84-1.067S525.858,147.819,526.752,147.919Z" transform="translate(-285.059 -67.091)" fill="#e1e0e1"/>
    <path id="Trazado_98" data-name="Trazado 98" d="M511.757,158.436c-.527-.04-.974-.26-1.067-.734-.127-.667.333-.96.927-1a.72.72,0,0,1,.867.774A.94.94,0,0,1,511.757,158.436Z" transform="translate(-280.094 -70.018)" fill="#e3e1e2"/>
    <path id="Trazado_99" data-name="Trazado 99" d="M503.756,145.636a.767.767,0,0,1-.8.82c-.54,0-.854-.207-.86-.747a.78.78,0,0,1,.76-.9C503.362,144.783,503.669,145.1,503.756,145.636Z" transform="translate(-277.236 -66.062)" fill="#fdfdfd"/>
    <path id="Trazado_100" data-name="Trazado 100" d="M465.645,137.68c2,2.054,2.474,4.448,3.028,6.809a1.494,1.494,0,0,1-.814,1.707,22.767,22.767,0,0,1-6.489,3.615A43.437,43.437,0,0,0,465.645,137.68Z" transform="translate(-263.674 -63.688)" fill="#0b0c0c"/>
    <path id="Trazado_101" data-name="Trazado 101" d="M375.514,140.967l-10.764-3.781c3.335-2.214,6.909-3.288,10.451-4.855C375.848,135.238,374.48,137.986,375.514,140.967Z" transform="translate(-231.492 -61.906)" fill="#0e0f0f"/>
    <path id="Trazado_102" data-name="Trazado 102" d="M453.52,130.1a83.611,83.611,0,0,0-17.3,7.59c2.388-3.9,5.442-6.476,7.856-9.564.667-.887,1.634-.253,2.854.067-1.214.934-2.168,1.621-3.075,2.374-.44.36-1.08.747-.594,1.487s1.054.454,1.641.22C447.484,131.225,449.879,129.6,453.52,130.1Z" transform="translate(-255.297 -60.354)" fill="#101112"/>
    <path id="Trazado_103" data-name="Trazado 103" d="M433.968,134.441c0-3.535-1.194-6.929-.474-10.671,1.414,1.247,1,2.708,1.107,4,.067.84-.407,2.067.854,2.261,1.047.16,1.114-1.027,1.441-1.754a4.312,4.312,0,0,0,.267-.627c.634-2.194,1.821-3.155,4.168-1.741C439.177,128.992,436.169,131.306,433.968,134.441Z" transform="translate(-254.313 -59.054)" fill="#131314"/>
    <path id="Trazado_104" data-name="Trazado 104" d="M427.746,136.268l-7.476-7.8c1.247-1.334,2.214-1.434,2.995.44a29.523,29.523,0,0,0,1.427,2.828c.22.407.587.78,1.107.48a.96.96,0,0,0,.54-1.134c-.28-1.094-.5-2.214-.84-3.295-.667-2.114-.667-2.107,1.487-2.994C427.226,128.471,427.473,132.166,427.746,136.268Z" transform="translate(-249.985 -59.394)" fill="#0d0e0e"/>
    <path id="Trazado_105" data-name="Trazado 105" d="M475.595,127.778c-1.647,1.714-3.795,2.268-5.856,2.981-1.04.36-1.7,0-1.4-1.174s-.96-2.828.58-3.408A5.979,5.979,0,0,1,475.595,127.778Z" transform="translate(-265.928 -59.715)" fill="#131314"/>
    <path id="Trazado_106" data-name="Trazado 106" d="M471,120.788c1.2-1.6,2.621-2.668,3.081-4.668,2.094,1.821,2.8,4.108,3.708,6.776C475.528,121.562,473.581,120.5,471,120.788Z" transform="translate(-266.882 -56.506)" fill="#101112"/>
    <path id="Trazado_107" data-name="Trazado 107" d="M418.771,137.482c1.774-.46,2-1.24.507-2.394a.769.769,0,0,1-.18-.14c-.854-1.14-2.668-1.587-2.541-3.428,1.607.193,2.254,1.627,3.235,2.6,1.567,1.554,3.015,3.228,4.829,5.2l-5.769-1.894Z" transform="translate(-248.746 -61.636)" fill="#1e1e1f"/>
    <path id="Trazado_108" data-name="Trazado 108" d="M472.27,134.075c2.288-.974,4.275-1.627,6.1-3.295-.08,2,.06,4.2-1.24,4.782C476.091,136.029,474.237,134.742,472.27,134.075Z" transform="translate(-267.305 -61.389)" fill="#1a1a1b"/>
    <path id="Trazado_109" data-name="Trazado 109" d="M461.632,111.384c-.807.92-1.407.494-2-.267s-1.154-1.334-2-2.308a15.537,15.537,0,0,1,8.743,2.094l-4.835.54a2.127,2.127,0,0,1-.253-.56,1.014,1.014,0,0,0,.347.5Z" transform="translate(-262.428 -54.072)" fill="#242525"/>
    <path id="Trazado_110" data-name="Trazado 110" d="M415.887,138.535l-8.237-2.127c1.681-1.627,3.141-2.274,4.842-.427.967,1.047,2.668,1.174,3.335,2.608C415.806,138.595,415.887,138.535,415.887,138.535Z" transform="translate(-245.781 -62.748)" fill="#1f1f20"/>
    <path id="Trazado_111" data-name="Trazado 111" d="M354.58,131.25a4.989,4.989,0,0,1,2.668,2.321c.273.494.827,1.114.273,1.621-.32.287-1,.24-1.514.247-.887,0-.514-.72-.627-1.167C355.14,133.351,354.893,132.417,354.58,131.25Z" transform="translate(-228.105 -61.546)" fill="#1b1b1c"/>
    <path id="Trazado_112" data-name="Trazado 112" d="M354.07,143.706c.3-1.1.514-1.941.774-2.768s.94-.627,1.487-.427c.874.327.347.774,0,1.18A6.669,6.669,0,0,1,354.07,143.706Z" transform="translate(-227.935 -64.572)" fill="#343535"/>
    <path id="Trazado_113" data-name="Trazado 113" d="M625.089,167.691a37.663,37.663,0,0,1-6.669,5.682C618.747,169.085,621.234,167.477,625.089,167.691Z" transform="translate(-315.984 -73.677)" fill="#131314"/>
    <path id="Trazado_114" data-name="Trazado 114" d="M631.364,159.7c.1-1.841.347-3.335-1.274-4.248a12.625,12.625,0,0,1,4.582-2.361A17.928,17.928,0,0,1,631.364,159.7Z" transform="translate(-319.871 -68.82)" fill="#1b1c1c"/>
    <path id="Trazado_115" data-name="Trazado 115" d="M627.024,161.966c.053-.667.727-1.334.06-2.094-.393-.44-.527-1.047.267-1.154a.954.954,0,0,1,1.16,1.034,2.5,2.5,0,0,1-1.334,2.414Z" transform="translate(-318.765 -70.687)" fill="#343535"/>
    <path id="Trazado_116" data-name="Trazado 116" d="M625.968,163.8a2.862,2.862,0,0,1-.427.507c-.667.52-1.521,1.16-2.214.574s0-1.094.714-.994a2.168,2.168,0,0,0,1.081-.12,5.629,5.629,0,0,1,.667-.167A.327.327,0,0,0,625.968,163.8Z" transform="translate(-317.523 -72.321)" fill="#262727"/>
    <path id="Trazado_117" data-name="Trazado 117" d="M305.427,135.421c-.12-7.883,1.561-9.417,8.957-8.45,2.868.38,5.729.88,8.557,1.507,3.621.814,5.442,3.275,5.035,6.516s-3.942,6.5-7.116,6.229c-4.268-.367-8.51-1.027-12.772-1.421-1.847-.173-2.728-.894-2.581-2.788A9.051,9.051,0,0,0,305.427,135.421Z" transform="translate(-211.731 -60.035)" fill="#030404"/>
    <path id="Trazado_118" data-name="Trazado 118" d="M609.306,125.271c-1.547.9-2.748,1.4-3.9.367a3.9,3.9,0,0,1-1.334-4.168C606.058,122.29,607.165,124.151,609.306,125.271Z" transform="translate(-311.152 -58.288)" fill="#131314"/>
    <path id="Trazado_119" data-name="Trazado 119" d="M468.336,147.479c0,.487-.12.847-.72.927a.867.867,0,0,1-1.027-.7.907.907,0,0,1,.867-1.107C468.023,146.551,468.243,146.958,468.336,147.479Z" transform="translate(-265.405 -66.657)" fill="#e0dedf"/>
    <path id="Trazado_120" data-name="Trazado 120" d="M377.234,138.594a2.274,2.274,0,0,1-2.127,1.647A2,2,0,0,1,373.073,138c.08-1.334,1.087-1.554,2.107-1.541C376.454,136.473,377.021,137.313,377.234,138.594Z" transform="translate(-234.26 -63.281)" fill="#f5f4f4"/>
    <path id="Trazado_121" data-name="Trazado 121" d="M472.021,128.551c-.073.527-.287.947-.807.987a.8.8,0,0,1-.867-.82c-.047-.494.147-.86.74-.88A.847.847,0,0,1,472.021,128.551Z" transform="translate(-266.662 -60.407)" fill="#f7f7f7"/>
    <path id="Trazado_122" data-name="Trazado 122" d="M462.958,111.746c-.714-.167-1.607-.213-1.274-1.334a.747.747,0,0,1,1.1-.407c1.067.514.32,1.167.1,1.781Z" transform="translate(-263.755 -54.433)" fill="#fefdfd"/>
    <text id="El_Portal_del" data-name="El Portal del" transform="translate(31.485 243.958)" fill="#fff" font-size="59" font-family="AbhayaLibre-Medium, Abhaya Libre Medium" font-weight="500"><tspan x="0" y="0">El Portal del</tspan></text>
    <text id="TAROT" transform="translate(1.08 327.038)" fill="#f6e826" font-size="119" font-family="AbhayaLibre-ExtraBold, Abhaya Libre ExtraBold" font-weight="800"><tspan x="0" y="0">TAROT</tspan></text>
  </g>
</svg>
